# xmcd
#
# Track frame offsets: 
#        151
#        23136
#        49832
#        63767
#        80548
#        95832
#        200186
#        219603
#        235138
#
# Disc length: 3362 seconds
#
# Revision: 2
# Processed by: cddbd v1.5.2PL0 Copyright (c) Steve Scherf et al.
# Submitted via: ExactAudioCopy v1.1
#
DISCID=7e0d2009
DTITLE=Canned Heat - Eternal boogie
DYEAR=2004
DGENRE=Bluesrock
TTITLE0=On the road again
TTITLE1=Amphetamine Annie
TTITLE2=Going up the country
TTITLE3=Let's work together
TTITLE4=Kings of the boogie
TTITLE5=Refried hockey boogie
TTITLE6=Hell's on down the line
TTITLE7=Chicken shack boogie
TTITLE8=So long
EXTD=
EXTT0=
EXTT1=
EXTT2=
EXTT3=
EXTT4=
EXTT5=
EXTT6=
EXTT7=
EXTT8=
PLAYORDER=
